<?xml version="1.0" standalone="no"?>
<!DOCTYPE svg PUBLIC "-//W3C//DTD SVG 20010904//EN"
 "http://www.w3.org/TR/2001/REC-SVG-20010904/DTD/svg10.dtd">
<svg version="1.0" xmlns="http://www.w3.org/2000/svg"
 width="512.000000pt" height="512.000000pt" viewBox="0 0 512.000000 512.000000"
 preserveAspectRatio="xMidYMid meet">

<g transform="translate(0.000000,512.000000) scale(0.100000,-0.100000)"
fill="#000000" stroke="none">
<path d="M355 5103 c-43 -13 -69 -34 -187 -151 -122 -123 -138 -143 -152 -191
-21 -73 -20 -119 5 -188 20 -55 65 -102 998 -1035 l976 -978 -976 -978 c-933
-933 -978 -980 -998 -1035 -25 -69 -26 -115 -5 -188 14 -48 30 -68 152 -191
123 -122 143 -138 191 -152 73 -21 119 -20 188 5 55 20 102 65 1036 998 l977
976 978 -976 c933 -933 980 -978 1035 -998 69 -25 115 -26 188 -5 48 14 68 30
191 152 122 123 138 143 152 191 21 73 20 119 -5 188 -20 55 -65 102 -998
1035 l-976 978 976 977 c933 934 978 981 998 1036 25 69 26 115 5 188 -14 48
-30 68 -152 191 -123 122 -143 138 -191 152 -73 21 -119 20 -188 -5 -55 -20
-102 -65 -1035 -998 l-978 -976 -977 976 c-934 933 -981 978 -1036 998 -67 24
-122 26 -192 4z"/>
</g>
</svg>
